# xmcd
#
# Track frame offsets:
#	150
#	21837
#	46630
#	71406
#	94928
#	121193
#	139384
#	151139
#	181931
#	201913
#	226256
#	257048
#	284823
#
# Disc length: 4058 seconds
#
# Revision: 0
# Processed by: cddbd v1.5.2PL0 Copyright (c) Steve Scherf et al.
# Submitted via: dBpowerAMP V4.0
#
DISCID=b40fd80d
DTITLE=Varios - Puros Gabanes
DYEAR=2008
DGENRE=Folklore
TTITLE0=El Gabán Gay-Reynaldo Figueredo
TTITLE1=El Gabán Alegre-Mirna Oito
TTITLE2=El Gabán Coleador-Armando Martínez
TTITLE3=El Gabán Herido-Domingo García
TTITLE4=El Gabán Ofensivo-Dámato Rodríguez
TTITLE5=El Gabán Karateca-Ronal Zalasar
TTITLE6=El Gabán Malandro-Julio Zalasar
TTITLE7=El Gabán Parrandero-Julio Pantoja
TTITLE8=El Gabán Patifui-Jesús Quintero
TTITLE9=Gabán Sin Lindero-José Figueredo
TTITLE10=El Gabán Tralancero-Margarita Zalasar
TTITLE11=El Gabán de Moda-Edgar Silva
TTITLE12=El Gabán Mototaxista-Jorge Pérez
EXTD=
EXTT0=
EXTT1=
EXTT2=
EXTT3=
EXTT4=
EXTT5=
EXTT6=
EXTT7=
EXTT8=
EXTT9=
EXTT10=
EXTT11=
EXTT12=
PLAYORDER=
